<?xml version="1.0" encoding="utf-8"?>
<!-- Generator: Adobe Illustrator 24.1.0, SVG Export Plug-In . SVG Version: 6.00 Build 0)  -->
<svg version="1.1" id="Layer_1" xmlns="http://www.w3.org/2000/svg" xmlns:xlink="http://www.w3.org/1999/xlink" x="0px" y="0px"
	 viewBox="0 0 1556 377" style="enable-background:new 0 0 1556 377;" xml:space="preserve">
<style type="text/css">
	.st0{fill:#FFFFFF;}
	.st1{fill:url(#SVGID_1_);}
</style>
<g>
	<g>
		<path class="st0" d="M658,168.4l-9.8,28.9h-29.1l50.3-144.4h34.7l50.3,144.4h-29.1l-9.8-28.9H658z M686.8,83.5l-20.2,59.3h40.4
			L686.8,83.5z"/>
		<path class="st0" d="M815.1,199.8c-32.2,0-55.3-25-55.3-56s23.1-56.4,55.3-56.4c25.8,0,45.4,14.6,51.6,38.7h-29.3
			c-3.7-7.3-12.3-13.5-22.3-13.5c-15.2,0-27.5,14.1-27.5,31.4c0,16.9,12.3,30.8,27.5,30.8c10.2,0,18.9-6.2,22.5-13.7h29.3
			C860.7,185.4,841.1,199.8,815.1,199.8z"/>
		<path class="st0" d="M955.1,187.3c-7.1,7.5-17.9,12.1-32.9,12.1c-22.7,0-43.5-11.4-43.5-34.7c0-24.1,20.2-30.4,43.9-32.5
			c17.9-1.7,30.6-3.7,30.6-12.5c0-5.6-7.3-10.2-19.6-10.2c-9.8,0-21,4.4-23.5,13.5h-27.5c2.7-20.4,22.3-35.6,50.3-35.6
			c43.5,0,46.8,28.1,46.8,36.6v55.8c0,5.2,1.7,13.3,3.1,17.5h-25.2C956.6,194.6,955.7,191.2,955.1,187.3z M954.3,145.7
			c-5.8,3.7-14.8,5.6-26,6.9c-13.5,1.5-21.8,4.4-21.8,12.3c0,6,7.1,10.2,18.1,10.2c16.4,0,29.7-5.6,29.7-19.3V145.7z"/>
		<path class="st0" d="M1108.6,197.3h-26.2v-11.4c-8.5,8.7-19.8,13.7-32.9,13.7c-27.9,0-51-24.1-51-55.8c0-31.8,23.1-56,51-56
			c12.5,0,23.3,4.6,31.6,12.5V42.5h27.5V197.3z M1053.7,113.2c-15.2,0-27.5,13.3-27.5,30.8c0,17.1,12.3,30.2,27.5,30.2
			c15.2,0,27.5-13.5,27.5-30.2C1081.2,126.9,1068.9,113.2,1053.7,113.2z"/>
		<path class="st0" d="M1155.9,154.4c3.5,13.1,13.9,21.2,26.8,21.2c9.2,0,18.1-4,22.7-12.5h29.3c-6.2,21.8-25.2,36.6-51.8,36.6
			c-30.2,0-54.9-25-54.9-56s24.8-56.4,54.9-56.4c31.6,0,57.8,24.5,53.9,67H1155.9z M1209.5,131.9c-3.3-12.5-13.7-20.4-26.8-20.4
			c-12.5,0-22.5,7.9-26.4,20.4H1209.5z"/>
		<path class="st0" d="M1420.1,197.3h-27.5v-62.6c0-6.2-2.1-21.2-20-21.2c-12.3,0-20.8,9.2-20.8,21.2v62.6h-27.7v-62.6
			c0-6.2-1.9-21.2-20-21.2c-12.1,0-20.6,9.2-20.6,21.2v62.6h-27.7V90.1h26.4v10.4c6.7-8.1,16-13.1,27.7-13.1
			c13.3,0,24.5,5.6,32,15.2c7.7-9.4,18.9-15.2,32.7-15.2c28.7,0,45.4,19.1,45.4,47.2V197.3z"/>
		<path class="st0" d="M1490.6,216.8c-10.4,27.9-26.8,31.6-49.3,30.2v-25c13.7,0.8,20.2-2.5,24.8-14.8l3.1-8.1l-41.4-109h29.1
			l26.2,77.4l25.6-77.4h29.3L1490.6,216.8z"/>
	</g>
	<g>
		<path class="st0" d="M688.6,335.5h-69.5v-93.8h68.5v16.6H637v20h43.2V295H637v23.9h51.6V335.5z"/>
		<path class="st0" d="M766.9,335.5h-17v-7.4c-5.5,5.7-12.8,8.9-21.3,8.9c-18.1,0-33.1-15.7-33.1-36.2c0-20.7,15-36.3,33.1-36.3
			c8.1,0,15.1,3,20.5,8.1V235h17.8V335.5z M731.2,280.9c-9.9,0-17.8,8.6-17.8,20c0,11.1,8,19.6,17.8,19.6c9.9,0,17.8-8.8,17.8-19.6
			C749,289.9,741.1,280.9,731.2,280.9z"/>
		<path class="st0" d="M844.4,335.5h-17v-6.4c-4.3,5-10.4,8-17.7,8c-16.5,0-27.4-12.3-27.4-30.5v-40.7h17.8v40.7
			c0,3.9,1.3,13.7,13,13.7c8,0,13.5-5.9,13.5-13.7v-40.7h17.8V335.5z"/>
		<path class="st0" d="M892.6,337.2c-20.9,0-35.9-16.2-35.9-36.4c0-20.1,15-36.6,35.9-36.6c16.8,0,29.5,9.5,33.5,25.1H907
			c-2.4-4.7-8-8.8-14.5-8.8c-9.9,0-17.8,9.2-17.8,20.4c0,10.9,8,20,17.8,20c6.6,0,12.3-4.1,14.6-8.9h19.1
			C922.2,327.8,909.4,337.2,892.6,337.2z"/>
		<path class="st0" d="M983.5,329c-4.6,4.9-11.6,7.8-21.3,7.8c-14.7,0-28.2-7.4-28.2-22.6c0-15.7,13.1-19.7,28.5-21.1
			c11.6-1.1,19.9-2.4,19.9-8.1c0-3.6-4.7-6.6-12.7-6.6c-6.4,0-13.7,2.8-15.3,8.8h-17.8c1.8-13.2,14.5-23.1,32.7-23.1
			c28.2,0,30.4,18.2,30.4,23.8v36.2c0,3.4,1.1,8.6,2,11.4h-16.4C984.5,333.8,983.9,331.6,983.5,329z M983,302
			c-3.8,2.4-9.6,3.6-16.9,4.5c-8.8,0.9-14.2,2.8-14.2,8c0,3.9,4.6,6.6,11.8,6.6c10.7,0,19.3-3.6,19.3-12.6V302z"/>
		<path class="st0" d="M1045.4,342.6c5.9-2.3,15.3,0.3,15.3,8.9c0,6.8-5,10.8-12.4,10.8c-4.7,0-9.7-2.4-13-5.7l2.4-4.2
			c2.6,2.4,6.2,3.7,9.6,3.7c3.1,0,5.7-1.5,5.7-4.3c0-2.3-2-4.5-5.4-4.5c-1.6,0-3.2,0.4-4.7,1.8l-4.9-3.2l4.6-8.9
			c-18.2-2.4-30.8-17.7-30.8-35.9c0-20.3,15-36.8,35.9-36.8c16.8,0,29.5,9.5,33.6,25.1h-19.2c-2.7-4.7-8-7.8-14.5-7.8
			c-9.9,0-17.8,8.8-17.8,19.5c0,10.4,8,19.1,17.8,19.1c6.6,0,11.9-3.1,14.6-8h19.1c-3.9,15.5-16.2,24.9-32.7,25.3L1045.4,342.6z"/>
		<path class="st0" d="M1138.7,329c-4.6,4.9-11.6,7.8-21.3,7.8c-14.7,0-28.2-7.4-28.2-22.6c0-15.7,13.1-19.7,28.5-21.1
			c11.6-1.1,19.9-2.4,19.9-8.1c0-3.6-4.7-6.6-12.7-6.6c-6.4,0-13.7,2.8-15.3,8.8h-17.8c1.8-13.2,14.5-23.1,32.7-23.1
			c28.2,0,30.4,18.2,30.4,23.8v36.2c0,3.4,1.1,8.6,2,11.4h-16.4C1139.6,333.8,1139.1,331.6,1138.7,329z M1133.5,255.4
			c-7.8,0-13.6-5-18.9-5c-3.1,0-5.1,1.6-6.1,5.5h-8.4c1.2-8.1,5.8-16.1,14.9-16.1c7.8,0,13.5,5.1,18.5,5.1c3.1,0,4.7-1.6,5.8-5.7
			h8.4C1146.6,247.6,1142.1,255.4,1133.5,255.4z M1138.1,302c-3.8,2.4-9.6,3.6-16.9,4.5c-8.8,0.9-14.2,2.8-14.2,8
			c0,3.9,4.6,6.6,11.8,6.6c10.7,0,19.3-3.6,19.3-12.6V302z"/>
		<path class="st0" d="M1237.1,300.8c0,20.8-15.8,36.4-35.1,36.4c-19.3,0-35-15.5-35-36.4s15.7-36.6,35-36.6
			C1221.3,264.2,1237.1,280,1237.1,300.8z M1219.1,300.9c0-12-7.7-20.4-17.2-20.4c-9.5,0-17.2,8.4-17.2,20.4
			c0,11.8,7.7,19.9,17.2,19.9C1211.4,320.8,1219.1,312.7,1219.1,300.9z"/>
	</g>
	<linearGradient id="SVGID_1_" gradientUnits="userSpaceOnUse" x1="22.8993" y1="197.5358" x2="565.8154" y2="197.5358">
		<stop  offset="0" style="stop-color:#00BFB3"/>
		<stop  offset="1" style="stop-color:#0090FF"/>
	</linearGradient>
	<path class="st1" d="M91.5,340.8c-23.6,0-46.2-8.7-63.7-24.6l-4.9-4.5L252.7,82c24.6-24.6,60.7-33.8,94.1-23.9l0.6,0.2
		c1.5,0.5,2.7,0.8,3.8,1.2c0.2,0.1,0.4,0.2,0.6,0.2l0.7,0.3c1,0.4,2,0.7,3,1.1c0.3,0.1,0.6,0.3,0.9,0.4l1.1,0.5
		c0.7,0.3,1.5,0.6,2.2,1c0.4,0.2,0.7,0.3,1.1,0.5l1.4,0.7c0.6,0.3,1.2,0.6,1.7,0.9c0.4,0.2,0.9,0.5,1.3,0.7l1.3,0.7
		c0.4,0.2,0.9,0.5,1.4,0.8c0.5,0.3,1,0.6,1.5,0.9l1.3,0.8c0.4,0.2,0.8,0.5,1.2,0.7c0.6,0.4,1.1,0.8,1.7,1.2l1.2,0.8
		c0.3,0.2,0.7,0.5,1,0.7c0.6,0.4,1.2,0.9,1.8,1.4l1.1,0.8c0.3,0.2,0.6,0.5,0.9,0.7c0.7,0.5,1.3,1.1,1.9,1.7l0.9,0.8l-4,4.9l4.1-4.9
		c0.3,0.2,0.5,0.4,0.8,0.7c0.7,0.7,1.5,1.4,2.2,2.1l0.6,0.6c0.2,0.2,0.4,0.4,0.6,0.6l87.3,87.3c1.2,1.2,27.2,27.8,53.1,39.8h38.7
		l-0.3,6.7c-2.5,50.6-44.1,90.2-94.8,90.2H347.5c-2.4,0-23.6-0.1-45.2,4c-18.5,3.5-31.6,8.8-38.9,15.9l-10.8,10.4v-32.4
		c0.1-52.3,42.6-94.8,94.9-94.8h29.4l-57-57.1l-64.3,64.4L158.6,313C140.7,331,116.9,340.8,91.5,340.8z M41.5,311.2
		c14.3,11,31.8,17,50,17c21.9,0,42.6-8.6,58.1-24.1l96.9-96.8l73.2-73.2l7.7,7.4l80.2,80.2h-60.1c-45.2,0-82.1,36.8-82.2,82v5
		c8.8-4.9,20.2-8.7,34.6-11.4c22.8-4.3,45.2-4.2,47.6-4.2h123.1c41.6,0,76.2-30.8,81.5-71.4h-27.8l-2.1-1
		c-28.1-12.9-56.1-41.4-57.3-42.6l-87.2-87.2c-0.1-0.1-0.1-0.1-0.2-0.2l-0.1-0.1c-0.2-0.2-0.4-0.3-0.5-0.5l-0.2-0.2
		c-0.7-0.7-1.3-1.3-1.9-1.8c-0.1-0.1-0.3-0.3-0.4-0.4l-1.1-0.9c-0.6-0.5-1.1-1-1.7-1.4c-0.2-0.1-0.4-0.3-0.5-0.4l-1.2-0.9
		c-0.5-0.4-1-0.8-1.5-1.2c-0.2-0.2-0.5-0.3-0.7-0.5l-1.2-0.9c-0.5-0.4-0.9-0.7-1.4-1c-0.3-0.2-0.5-0.3-0.8-0.5l-1.4-0.9
		c-0.5-0.3-0.8-0.5-1.2-0.7c-0.4-0.2-0.7-0.4-1.1-0.6l-1.4-0.8c-0.4-0.2-0.7-0.4-1-0.6c-0.4-0.2-0.9-0.4-1.3-0.7l-1.6-0.8
		c-0.2-0.1-0.5-0.2-0.7-0.3c-0.6-0.3-1.2-0.5-1.8-0.8l-0.6-0.2c-0.3-0.1-0.5-0.2-0.7-0.3c-0.2-0.1-0.4-0.2-0.6-0.2
		c-0.9-0.3-1.7-0.7-2.5-1l-0.2-0.1c-0.2-0.1-0.5-0.2-0.7-0.3l-0.3-0.1c-0.9-0.3-1.9-0.6-3.3-1c-0.2-0.1-0.4-0.1-0.6-0.2l0,0
		c-28.9-8.5-60.1-0.6-81.4,20.7L99.1,253.6L41.5,311.2z"/>
</g>
</svg>
